<mxfile host="app.diagrams.net">
  <diagram name="消息系统协作图" id="messaging_system">
    <mxGraphModel dx="1200" dy="800" grid="1" gridSize="10" guides="1" tooltips="1" connect="1" arrows="1" fold="1" page="1" pageScale="1" pageWidth="1100" pageHeight="850">
      <root>
        <mxCell id="0" />
        <mxCell id="1" parent="0" />
        
        <!-- 参与者 -->
        <mxCell id="sender_client" value="发送方客户端" style="shape=umlLifeline;participant=umlActor;perimeter=lifelinePerimeter;whiteSpace=wrap;html=1;container=1;collapsible=0;recursiveResize=0;verticalAlign=top;spacingTop=36;outlineConnect=0;" vertex="1" parent="1">
          <mxGeometry x="100" y="80" width="40" height="600" as="geometry" />
        </mxCell>
        
        <mxCell id="receiver_client" value="接收方客户端" style="shape=umlLifeline;participant=umlActor;perimeter=lifelinePerimeter;whiteSpace=wrap;html=1;container=1;collapsible=0;recursiveResize=0;verticalAlign=top;spacingTop=36;outlineConnect=0;" vertex="1" parent="1">
          <mxGeometry x="900" y="80" width="40" height="600" as="geometry" />
        </mxCell>
        
        <mxCell id="websocket_server" value="WebSocket服务器" style="shape=umlLifeline;perimeter=lifelinePerimeter;whiteSpace=wrap;html=1;container=1;collapsible=0;recursiveResize=0;verticalAlign=top;spacingTop=5;outlineConnect=0;" vertex="1" parent="1">
          <mxGeometry x="240" y="80" width="120" height="600" as="geometry" />
        </mxCell>
        
        <mxCell id="message_channel" value="消息通道&#xa;MessageChannel" style="shape=umlLifeline;perimeter=lifelinePerimeter;whiteSpace=wrap;html=1;container=1;collapsible=0;recursiveResize=0;verticalAlign=top;spacingTop=5;outlineConnect=0;" vertex="1" parent="1">
          <mxGeometry x="400" y="80" width="120" height="600" as="geometry" />
        </mxCell>
        
        <mxCell id="database" value="数据库" style="shape=umlLifeline;perimeter=lifelinePerimeter;whiteSpace=wrap;html=1;container=1;collapsible=0;recursiveResize=0;verticalAlign=top;spacingTop=5;outlineConnect=0;dashed=0;" vertex="1" parent="1">
          <mxGeometry x="560" y="80" width="120" height="600" as="geometry" />
        </mxCell>
        
        <mxCell id="push_service" value="推送服务" style="shape=umlLifeline;perimeter=lifelinePerimeter;whiteSpace=wrap;html=1;container=1;collapsible=0;recursiveResize=0;verticalAlign=top;spacingTop=5;outlineConnect=0;" vertex="1" parent="1">
          <mxGeometry x="720" y="80" width="120" height="600" as="geometry" />
        </mxCell>

        <!-- 连接和初始化 -->
        <mxCell id="client_connect" value="连接WebSocket" style="html=1;verticalAlign=bottom;startArrow=none;endArrow=block;startSize=8;curved=0;rounded=0;entryX=0;entryY=0;entryDx=0;entryDy=5;" edge="1" parent="1" source="sender_client" target="websocket_server">
          <mxGeometry relative="1" as="geometry">
            <mxPoint x="120" y="160" as="sourcePoint" />
            <Array as="points">
              <mxPoint x="210" y="160" />
            </Array>
            <mxPoint as="offset" />
          </mxGeometry>
        </mxCell>
        
        <mxCell id="join_channel" value="加入用户频道 (user:user_id)" style="html=1;verticalAlign=bottom;startArrow=none;endArrow=block;startSize=8;curved=0;rounded=0;" edge="1" parent="1">
          <mxGeometry relative="1" as="geometry">
            <mxPoint x="120" y="200" as="sourcePoint" />
            <mxPoint x="300" y="200" as="targetPoint" />
            <Array as="points">
              <mxPoint x="210" y="200" />
            </Array>
          </mxGeometry>
        </mxCell>

        <mxCell id="authorize" value="验证Token" style="html=1;verticalAlign=bottom;startArrow=none;endArrow=block;startSize=8;curved=0;rounded=0;" edge="1" parent="1">
          <mxGeometry relative="1" as="geometry">
            <mxPoint x="300" y="220" as="sourcePoint" />
            <mxPoint x="460" y="220" as="targetPoint" />
          </mxGeometry>
        </mxCell>
        
        <mxCell id="join_ok" value="加入成功" style="html=1;verticalAlign=bottom;startArrow=none;endArrow=open;startSize=8;curved=0;rounded=0;dashed=1;" edge="1" parent="1">
          <mxGeometry relative="1" as="geometry">
            <mxPoint x="300" y="240" as="sourcePoint" />
            <mxPoint x="120" y="240" as="targetPoint" />
          </mxGeometry>
        </mxCell>

        <!-- 发送消息流程 -->
        <mxCell id="client_send" value="发送消息&#xa;(send_message)" style="html=1;verticalAlign=bottom;startArrow=none;endArrow=block;startSize=8;curved=0;rounded=0;" edge="1" parent="1">
          <mxGeometry relative="1" as="geometry">
            <mxPoint x="120" y="280" as="sourcePoint" />
            <mxPoint x="300" y="280" as="targetPoint" />
          </mxGeometry>
        </mxCell>

        <mxCell id="route_to_channel" value="路由到频道处理" style="html=1;verticalAlign=bottom;startArrow=none;endArrow=block;startSize=8;curved=0;rounded=0;" edge="1" parent="1">
          <mxGeometry relative="1" as="geometry">
            <mxPoint x="300" y="300" as="sourcePoint" />
            <mxPoint x="460" y="300" as="targetPoint" />
          </mxGeometry>
        </mxCell>
        
        <mxCell id="validate_msg" value="验证消息格式" style="html=1;align=left;spacingLeft=2;endArrow=block;rounded=0;edgeStyle=orthogonalEdgeStyle;curved=0;rounded=0;" edge="1" parent="1">
          <mxGeometry relative="1" as="geometry">
            <mxPoint x="460" y="310" as="sourcePoint" />
            <Array as="points">
              <mxPoint x="490" y="310" />
              <mxPoint x="490" y="340" />
            </Array>
            <mxPoint x="465" y="340" as="targetPoint" />
          </mxGeometry>
        </mxCell>
        
        <mxCell id="save_msg" value="保存消息" style="html=1;verticalAlign=bottom;startArrow=none;endArrow=block;startSize=8;curved=0;rounded=0;" edge="1" parent="1">
          <mxGeometry relative="1" as="geometry">
            <mxPoint x="460" y="360" as="sourcePoint" />
            <mxPoint x="620" y="360" as="targetPoint" />
          </mxGeometry>
        </mxCell>
        
        <mxCell id="db_confirm" value="保存成功" style="html=1;verticalAlign=bottom;startArrow=none;endArrow=open;startSize=8;curved=0;rounded=0;dashed=1;" edge="1" parent="1">
          <mxGeometry relative="1" as="geometry">
            <mxPoint x="620" y="380" as="sourcePoint" />
            <mxPoint x="460" y="380" as="targetPoint" />
          </mxGeometry>
        </mxCell>
        
        <mxCell id="send_confirm" value="消息发送成功" style="html=1;verticalAlign=bottom;startArrow=none;endArrow=open;startSize=8;curved=0;rounded=0;dashed=1;" edge="1" parent="1">
          <mxGeometry relative="1" as="geometry">
            <mxPoint x="300" y="400" as="sourcePoint" />
            <mxPoint x="120" y="400" as="targetPoint" />
          </mxGeometry>
        </mxCell>
        
        <!-- 创建事件并推送给接收方 -->
        <mxCell id="create_event" value="创建消息事件" style="html=1;verticalAlign=bottom;startArrow=none;endArrow=block;startSize=8;curved=0;rounded=0;" edge="1" parent="1">
          <mxGeometry relative="1" as="geometry">
            <mxPoint x="460" y="420" as="sourcePoint" />
            <mxPoint x="620" y="420" as="targetPoint" />
          </mxGeometry>
        </mxCell>
        
        <mxCell id="broadcast_event" value="广播事件给接收方" style="html=1;verticalAlign=bottom;startArrow=none;endArrow=block;startSize=8;curved=0;rounded=0;" edge="1" parent="1">
          <mxGeometry relative="1" as="geometry">
            <mxPoint x="460" y="460" as="sourcePoint" />
            <mxPoint x="780" y="460" as="targetPoint" />
          </mxGeometry>
        </mxCell>
        
        <mxCell id="push_to_client" value="推送通知" style="html=1;verticalAlign=bottom;startArrow=none;endArrow=block;startSize=8;curved=0;rounded=0;" edge="1" parent="1">
          <mxGeometry relative="1" as="geometry">
            <mxPoint x="780" y="480" as="sourcePoint" />
            <mxPoint x="920" y="480" as="targetPoint" />
          </mxGeometry>
        </mxCell>
        
        <!-- 接收方获取消息 -->
        <mxCell id="receiver_connect" value="连接WebSocket" style="html=1;verticalAlign=bottom;startArrow=none;endArrow=block;startSize=8;curved=0;rounded=0;" edge="1" parent="1">
          <mxGeometry x="0.0061" relative="1" as="geometry">
            <mxPoint x="920" y="520" as="sourcePoint" />
            <mxPoint x="300" y="520" as="targetPoint" />
            <mxPoint as="offset" />
          </mxGeometry>
        </mxCell>
        
        <mxCell id="sync_msg" value="同步消息 (sync)" style="html=1;verticalAlign=bottom;startArrow=none;endArrow=block;startSize=8;curved=0;rounded=0;" edge="1" parent="1">
          <mxGeometry relative="1" as="geometry">
            <mxPoint x="920" y="540" as="sourcePoint" />
            <mxPoint x="460" y="540" as="targetPoint" />
          </mxGeometry>
        </mxCell>
        
        <mxCell id="get_events" value="获取新事件" style="html=1;verticalAlign=bottom;startArrow=none;endArrow=block;startSize=8;curved=0;rounded=0;" edge="1" parent="1">
          <mxGeometry relative="1" as="geometry">
            <mxPoint x="460" y="560" as="sourcePoint" />
            <mxPoint x="620" y="560" as="targetPoint" />
          </mxGeometry>
        </mxCell>
        
        <mxCell id="return_events" value="返回事件列表" style="html=1;verticalAlign=bottom;startArrow=none;endArrow=open;startSize=8;curved=0;rounded=0;dashed=1;" edge="1" parent="1">
          <mxGeometry relative="1" as="geometry">
            <mxPoint x="620" y="580" as="sourcePoint" />
            <mxPoint x="460" y="580" as="targetPoint" />
          </mxGeometry>
        </mxCell>
        
        <mxCell id="return_sync" value="返回同步数据" style="html=1;verticalAlign=bottom;startArrow=none;endArrow=open;startSize=8;curved=0;rounded=0;dashed=1;" edge="1" parent="1">
          <mxGeometry relative="1" as="geometry">
            <mxPoint x="460" y="600" as="sourcePoint" />
            <mxPoint x="920" y="600" as="targetPoint" />
          </mxGeometry>
        </mxCell>
        
        <!-- 标题和说明 -->
        <mxCell id="title" value="消息系统协作图" style="text;strokeColor=none;fillColor=none;html=1;fontSize=24;fontStyle=1;verticalAlign=middle;align=center;" vertex="1" parent="1">
          <mxGeometry x="500" y="20" width="240" height="40" as="geometry" />
        </mxCell>
        
        <!-- 备注框 -->
        <mxCell id="note" value="说明:&#xa;1. 消息通过WebSocket实时发送和接收&#xa;2. 消息持久化到数据库以支持历史记录和同步&#xa;3. 推送服务确保离线用户能收到消息通知&#xa;4. 系统支持消息状态追踪(发送、已读等)" style="shape=note;whiteSpace=wrap;html=1;size=14;verticalAlign=top;align=left;spacingTop=-6;fillColor=#fff2cc;strokeColor=#d6b656;" vertex="1" parent="1">
          <mxGeometry x="840" y="650" width="240" height="100" as="geometry" />
        </mxCell>
        
        <!-- 消息标记已读流程 -->
        <mxCell id="mark_read_note" value="消息状态变更流程(如标记已读)类似,&#xa;但从接收方发起,更新消息状态并通知发送方" style="shape=note;whiteSpace=wrap;html=1;size=14;verticalAlign=top;align=left;spacingTop=-6;fillColor=#fff2cc;strokeColor=#d6b656;" vertex="1" parent="1">
          <mxGeometry x="100" y="650" width="240" height="100" as="geometry" />
        </mxCell>
        
      </root>
    </mxGraphModel>
  </diagram>
</mxfile>
